<svg xmlns="http://www.w3.org/2000/svg" width="60" height="58" viewBox="0 0 60 58"><g transform="translate(-456 -380)"><g transform="translate(142 53)"><g transform="translate(341.098 366.422) rotate(-90)" fill="none" stroke="#8d8187" stroke-width="1"><circle cx="3.038" cy="3.038" r="3.038" stroke="none"/><circle cx="3.038" cy="3.038" r="2.538" fill="none"/></g><g transform="translate(341.098 341.247) rotate(-90)" fill="none" stroke="#8d8187" stroke-width="1"><circle cx="3.038" cy="3.038" r="3.038" stroke="none"/><circle cx="3.038" cy="3.038" r="2.538" fill="none"/></g><line x2="19.966" transform="translate(344.137 360.779) rotate(-90)" fill="none" stroke="#8d8187" stroke-width="1"/><g transform="translate(322 333)" fill="none" stroke="#485417" stroke-width="3"><circle cx="6.5" cy="6.5" r="6.5" stroke="none"/><circle cx="6.5" cy="6.5" r="5" fill="none"/></g><g transform="translate(322 356)" fill="none" stroke="#385c80" stroke-width="3"><circle cx="6.5" cy="6.5" r="6.5" stroke="none"/><circle cx="6.5" cy="6.5" r="5" fill="none"/></g><g transform="translate(353 333)" fill="none" stroke="#385c80" stroke-width="3"><circle cx="6.5" cy="6.5" r="6.5" stroke="none"/><circle cx="6.5" cy="6.5" r="5" fill="none"/></g><g transform="translate(353 356)" fill="none" stroke="#485417" stroke-width="3"><circle cx="6.5" cy="6.5" r="6.5" stroke="none"/><circle cx="6.5" cy="6.5" r="5" fill="none"/></g><g transform="translate(329 348)" fill="none" stroke="#8d8187" stroke-width="1"><circle cx="3" cy="3" r="3" stroke="none"/><circle cx="3" cy="3" r="2.5" fill="none"/></g><g transform="translate(354 348)" fill="none" stroke="#8d8187" stroke-width="1"><circle cx="3" cy="3" r="3" stroke="none"/><circle cx="3" cy="3" r="2.5" fill="none"/></g><line x2="19.966" transform="translate(334.588 350.796)" fill="none" stroke="#8d8187" stroke-width="1"/><path d="M0,0H2.479L18.248,22.571h2.587" transform="translate(333.719 339.511)" fill="none" stroke="#485417" stroke-linecap="round" stroke-width="2"/><path d="M0,22.571H2.739L18.317,0h2.518" transform="translate(333.719 339.511)" fill="none" stroke="#385c80" stroke-linecap="round" stroke-width="2"/></g><g transform="translate(459 383)" fill="none" stroke="#707070" stroke-linecap="round" stroke-width="1"><rect width="54" height="42" rx="3" stroke="none"/><rect x="0.5" y="0.5" width="53" height="41" rx="2.5" fill="none"/></g><g transform="translate(456 380)" fill="none" stroke="#707070" stroke-linecap="round" stroke-width="1"><path d="M3,0H57a3,3,0,0,1,3,3V48a0,0,0,0,1,0,0H0a0,0,0,0,1,0,0V3A3,3,0,0,1,3,0Z" stroke="none"/><path d="M3,.5H57A2.5,2.5,0,0,1,59.5,3V47a.5.5,0,0,1-.5.5H1A.5.5,0,0,1,.5,47V3A2.5,2.5,0,0,1,3,.5Z" fill="none"/></g><g transform="translate(456 427)" fill="none" stroke="#707070" stroke-linecap="round" stroke-width="1"><path d="M0,0H60a0,0,0,0,1,0,0V3a3,3,0,0,1-3,3H3A3,3,0,0,1,0,3V0A0,0,0,0,1,0,0Z" stroke="none"/><path d="M1,.5H59a.5.5,0,0,1,.5.5V3A2.5,2.5,0,0,1,57,5.5H3A2.5,2.5,0,0,1,.5,3V1A.5.5,0,0,1,1,.5Z" fill="none"/></g><line y2="5" transform="translate(477.5 432.5)" fill="none" stroke="#707070" stroke-width="1"/><line y2="5" transform="translate(493.5 432.5)" fill="none" stroke="#707070" stroke-width="1"/><line x2="30" transform="translate(470.5 437.5)" fill="none" stroke="#707070" stroke-linecap="round" stroke-width="1"/></g></svg>